<svg width="23" height="23" viewBox="0 0 23 23" fill="none" xmlns="http://www.w3.org/2000/svg">
<path d="M11.25 17.25C14.5637 17.25 17.25 14.5637 17.25 11.25C17.25 7.93629 14.5637 5.25 11.25 5.25C7.93629 5.25 5.25 7.93629 5.25 11.25C5.25 14.5637 7.93629 17.25 11.25 17.25Z" fill="#2E7D57" fill-opacity="0.9"/>
<path d="M12.375 1.125C12.375 0.50368 11.8713 0 11.25 0C10.6287 0 10.125 0.50368 10.125 1.125V4.125C10.125 4.74632 10.6287 5.25 11.25 5.25C11.8713 5.25 12.375 4.74632 12.375 4.125V1.125Z" fill="#2E7D57" fill-opacity="0.9"/>
<path d="M19.2049 4.88604C19.6443 4.4467 19.6443 3.73438 19.2049 3.29504C18.7656 2.85571 18.0533 2.85571 17.614 3.29504L15.4926 5.41637C15.0533 5.8557 15.0533 6.56802 15.4926 7.00736C15.932 7.4467 16.6443 7.4467 17.0836 7.00736L19.2049 4.88604Z" fill="#2E7D57" fill-opacity="0.9"/>
<path d="M21.375 12.375C21.9963 12.375 22.5 11.8713 22.5 11.25C22.5 10.6287 21.9963 10.125 21.375 10.125H18.375C17.7537 10.125 17.25 10.6287 17.25 11.25C17.25 11.8713 17.7537 12.375 18.375 12.375H21.375Z" fill="#2E7D57" fill-opacity="0.9"/>
<path d="M17.614 19.2049C18.0533 19.6443 18.7656 19.6443 19.205 19.2049C19.6443 18.7656 19.6443 18.0533 19.205 17.614L17.0836 15.4926C16.6443 15.0533 15.932 15.0533 15.4926 15.4926C15.0533 15.932 15.0533 16.6443 15.4926 17.0836L17.614 19.2049Z" fill="#2E7D57" fill-opacity="0.9"/>
<path d="M10.125 21.375C10.125 21.9963 10.6287 22.5 11.25 22.5C11.8713 22.5 12.375 21.9963 12.375 21.375V18.375C12.375 17.7537 11.8713 17.25 11.25 17.25C10.6287 17.25 10.125 17.7537 10.125 18.375V21.375Z" fill="#2E7D57" fill-opacity="0.9"/>
<path d="M3.29505 17.614C2.85571 18.0533 2.85571 18.7656 3.29505 19.2049C3.73439 19.6443 4.4467 19.6443 4.88604 19.2049L7.00736 17.0836C7.4467 16.6443 7.4467 15.932 7.00736 15.4926C6.56802 15.0533 5.85571 15.0533 5.41637 15.4926L3.29505 17.614Z" fill="#2E7D57" fill-opacity="0.9"/>
<path d="M1.125 10.125C0.50368 10.125 0 10.6287 0 11.25C0 11.8713 0.50368 12.375 1.125 12.375H4.125C4.74632 12.375 5.25 11.8713 5.25 11.25C5.25 10.6287 4.74632 10.125 4.125 10.125H1.125Z" fill="#2E7D57" fill-opacity="0.9"/>
<path d="M4.88604 3.29505C4.4467 2.85571 3.73439 2.85571 3.29505 3.29505C2.85571 3.73439 2.85571 4.4467 3.29505 4.88604L5.41637 7.00736C5.85571 7.4467 6.56802 7.4467 7.00736 7.00736C7.4467 6.56802 7.4467 5.85571 7.00736 5.41637L4.88604 3.29505Z" fill="#2E7D57" fill-opacity="0.9"/>
</svg>
